<svg width="103" height="102" viewBox="0 0 103 102" fill="none" xmlns="http://www.w3.org/2000/svg">
<rect x="0.5" width="102" height="102" rx="51" fill="#FEF3F2"/>
<path d="M30.7955 67.7345C30.3554 68.4968 30.6167 69.4715 31.379 69.9116C32.1414 70.3516 33.1161 70.0903 33.5561 69.328L30.7955 67.7345ZM69.4439 69.328C69.8839 70.0903 70.8586 70.3516 71.621 69.9116C72.3833 69.4715 72.6446 68.4968 72.2045 67.7345L69.4439 69.328ZM62.6562 44.625C62.6562 50.7864 57.6614 55.7812 51.5 55.7812V58.9688C59.4218 58.9688 65.8438 52.5468 65.8438 44.625H62.6562ZM51.5 55.7812C45.3386 55.7812 40.3438 50.7864 40.3438 44.625H37.1562C37.1562 52.5468 43.5782 58.9688 51.5 58.9688V55.7812ZM40.3438 44.625C40.3438 38.4636 45.3386 33.4688 51.5 33.4688V30.2812C43.5782 30.2812 37.1562 36.7032 37.1562 44.625H40.3438ZM51.5 33.4688C57.6614 33.4688 62.6562 38.4636 62.6562 44.625H65.8438C65.8438 36.7032 59.4218 30.2812 51.5 30.2812V33.4688ZM33.5561 69.328C35.3744 66.1779 37.99 63.562 41.1398 61.7433L39.5459 58.9829C35.9115 61.0814 32.8935 64.0998 30.7955 67.7345L33.5561 69.328ZM41.1398 61.7433C44.2896 59.9245 47.8628 58.967 51.5 58.967V55.7795C47.3032 55.7795 43.1804 56.8843 39.5459 58.9829L41.1398 61.7433ZM51.5 58.967C55.1372 58.967 58.7104 59.9245 61.8602 61.7433L63.4541 58.9829C59.8196 56.8843 55.6968 55.7795 51.5 55.7795V58.967ZM61.8602 61.7433C65.01 63.562 67.6256 66.1779 69.4439 69.328L72.2045 67.7345C70.1065 64.0998 67.0885 61.0814 63.4541 58.9829L61.8602 61.7433Z" fill="#831A12"/>
</svg>
